{"title":"Lisa Ann presents_Lisa Ann Loves Girls_Dvd+Bonus","uid":10313249,"size":2287883780,"categoryP":"porn","categoryS":"movies","magnet":"?xt=urn:btih:e2944201df9b4b785a08497d66521ec6ebf829a3&amp;dn=Lisa+Ann+presents_Lisa+Ann+Loves+Girls_Dvd%2BBonus&amp;tr=udp%3A%2F%2Ftracker.openbittorrent.com%3A80&amp;tr=udp%3A%2F%2Fopen.demonii.com%3A1337&amp;tr=udp%3A%2F%2Ftracker.coppersurfer.tk%3A6969&amp;tr=udp%3A%2F%2Fexodus.desync.com%3A6969","seeders":1,"leechers":0,"uploader":"NETBOX68","files":1,"time":1402213967,"description":"Lisa Ann presents Lisa Ann Loves Girls\n-------------------------------------------------------------------\nin\n***************************************\n &lt;a href=&quot;\nhttp://bayimg.com/aaOLlAafJ&quot; rel=&quot;nofollow&quot; target=&quot;_NEW&quot;&gt;\nhttp://bayimg.com/aaOLlAafJ&lt;/a&gt;\n\n-----------------------------------------------\ndvd\n******************************\n &lt;a href=&quot;\nhttp://bayimg.com/AAOlMaaFj&quot; rel=&quot;nofollow&quot; target=&quot;_NEW&quot;&gt;\nhttp://bayimg.com/AAOlMaaFj&lt;/a&gt;\n\n----------------------------------------------\nsample\n****************************************\n &lt;a href=&quot;\nhttp://bayimg.com/AaoLnAAfJ&quot; rel=&quot;nofollow&quot; target=&quot;_NEW&quot;&gt;\nhttp://bayimg.com/AaoLnAAfJ&lt;/a&gt;\n\n------------------------------------------------------\nDvd+Bonus\n***********************************************\nDVD.Covers.Featuring.Photo Gallery.\nPictures.Sample.Screen.\n----------------------------------------------------------\nstoixeia\n*********************************************\nmin= 01 49 41 + 00 05 56\ngb= 1.98\n\n-------------------------------------------------------------\nGeneral\nComplete name                    : C:ETOIMAxxxDVDLisa Ann presents_Lisa Ann Loves Girls_Dvd+BonusDVDLisa Ann presents_Lisa Ann Loves Girls_Dvd+Bonus.avi\nFormat                           : AVI\nFormat/Info                      : Audio Video Interleave\nFormat profile                   : OpenDML\nFile size                        : 1.99 GiB\nDuration                         : 1h 49mn\nOverall bit rate                 : 2 597 Kbps\nWriting application              : MEncoder SVN-r30881(20100311-gcc4.3.3)\nWriting library                  : MPlayer\n\nVideo\nID                               : 0\nFormat                           : MPEG-4 Visual\nFormat profile                   : Advanced Simple@L5\nFormat settings, BVOP            : 2\nFormat settings, QPel            : No\nFormat settings, GMC             : No warppoints\nFormat settings, Matrix          : Default (H.263)\nCodec ID                         : XVID\nCodec ID/Hint                    : XviD\nDuration                         : 1h 49mn\nBit rate                         : 2 392 Kbps\nWidth                            : 1 280 pixels\nHeight                           : 720 pixels\nDisplay aspect ratio             : 16:9\nFrame rate                       : 25.000 fps\nColor space                      : YUV\nChroma subsampling               : 4:2:0\nBit depth                        : 8 bits\nScan type                        : Progressive\nCompression mode                 : Lossy\nBits/(Pixel*Frame)               : 0.104\nStream size                      : 1.83 GiB (92%)\nWriting library                  : XviD 1.2.1 (UTC 2008-12-04)\n\nAudio\nID                               : 1\nFormat                           : MPEG Audio\nFormat version                   : Version 1\nFormat profile                   : Layer 3\nMode                             : Joint stereo\nMode extension                   : MS Stereo\nCodec ID                         : 55\nCodec ID/Hint                    : MP3\nDuration                         : 1h 49mn\nBit rate mode                    : Constant\nBit rate                         : 192 Kbps\nChannel(s)                       : 2 channels\nSampling rate                    : 48.0 KHz\nCompression mode                 : Lossy\nStream size                      : 4.11 MiB (0%)\nAlignment                        : Aligned on interleaves\nInterleave, duration             : 880 ms (21.99 video frames)\nInterleave, preload duration     : 504 ms\nWriting library                  : LAME3.98\n\n","torrent":{"xt":"urn:btih:e2944201df9b4b785a08497d66521ec6ebf829a3","amp;dn":"Lisa+Ann+presents_Lisa+Ann+Loves+Girls_Dvd%2BBonus","amp;tr":["udp%3A%2F%2Ftracker.openbittorrent.com%3A80","udp%3A%2F%2Fopen.demonii.com%3A1337","udp%3A%2F%2Ftracker.coppersurfer.tk%3A6969","udp%3A%2F%2Fexodus.desync.com%3A6969"],"infoHash":"e2944201df9b4b785a08497d66521ec6ebf829a3","infoHashBuffer":{"type":"Buffer","data":[226,148,66,1,223,155,75,120,90,8,73,125,102,82,30,198,235,248,41,163]},"announce":[],"urlList":[]}}